<svg width="1440" height="779" viewBox="0 0 1440 779" fill="none" xmlns="http://www.w3.org/2000/svg">
<path d="M71.9843 1V60.7692M71.9843 1H0V60.7692M71.9843 1H143.969M71.9843 60.7692L71.9843 120.538M71.9843 60.7692H0M71.9843 60.7692L143.969 60.7692M71.9843 120.538V180.308M71.9843 120.538H0M71.9843 120.538L143.969 120.538M71.9843 180.308L71.9843 240.077M71.9843 180.308H0M71.9843 180.308H143.968M71.9843 240.077V299.846M71.9843 240.077H0M71.9843 240.077H143.968M71.9843 299.846V359.615M71.9843 299.846H0M71.9843 299.846H143.968M71.9843 359.615L71.9842 419.385M71.9843 359.615H0M71.9843 359.615H143.968M71.9842 419.385V479.154M71.9842 419.385H0M71.9842 419.385H143.968M71.9842 479.154V538.923M71.9842 479.154H0M71.9842 479.154H143.968M71.9842 538.923L71.9842 598.692M71.9842 538.923H0M71.9842 538.923H143.968M71.9842 598.692V658.461M71.9842 598.692H0M71.9842 598.692H143.968M71.9842 658.461L71.9842 718.231M71.9842 658.461H0M71.9842 658.461H143.968M71.9842 718.231V778M71.9842 718.231H0M71.9842 718.231H143.968M71.9842 778L0 778V718.231M71.9842 778H143.968M0 60.7692V120.538M0 120.538V180.308M0 180.308V240.077M0 240.077V299.846M0 299.846V359.615M0 359.615V419.385M0 419.385V479.154M0 479.154V538.923M0 538.923V598.692M0 598.692V658.461M0 658.461V718.231M143.969 1V60.7692M143.969 1H215.953M143.969 60.7692V120.538M143.969 60.7692H215.953M143.969 120.538L143.968 180.308M143.969 120.538H215.953M143.968 180.308V240.077M143.968 180.308L215.953 180.308M143.968 240.077V299.846M143.968 240.077H215.953M143.968 299.846V359.615M143.968 299.846H215.953M143.968 359.615L143.968 419.385M143.968 359.615H215.953M143.968 419.385V479.154M143.968 419.385H215.953M143.968 479.154V538.923M143.968 479.154H215.953M143.968 538.923V598.692M143.968 538.923H215.953M143.968 598.692L143.968 658.461M143.968 598.692H215.953M143.968 658.461V718.231M143.968 658.461H215.953M143.968 718.231V778M143.968 718.231H215.953M143.968 778H215.953M215.953 1V60.7692M215.953 1H287.937M215.953 60.7692V120.538M215.953 60.7692L287.937 60.7692M215.953 120.538L215.953 180.308M215.953 120.538H287.937M215.953 180.308V240.077M215.953 180.308H287.937M215.953 240.077V299.846M215.953 240.077L287.937 240.077M215.953 299.846V359.615M215.953 299.846L287.937 299.846M215.953 359.615L215.953 419.385M215.953 359.615H287.937M215.953 419.385V479.154M215.953 419.385H287.937M215.953 479.154V538.923M215.953 479.154H287.937M215.953 538.923V598.692M215.953 538.923H287.937M215.953 598.692L215.953 658.461M215.953 598.692H287.937M215.953 658.461V718.231M215.953 658.461H287.937M215.953 718.231V778M215.953 718.231H287.937M215.953 778H287.937M287.937 1V60.7692M287.937 1H359.921M287.937 60.7692V120.538M287.937 60.7692H359.921M287.937 120.538V180.308M287.937 120.538L359.921 120.538M287.937 180.308V240.077M287.937 180.308H359.921M287.937 240.077V299.846M287.937 240.077H359.921M287.937 299.846V359.615M287.937 299.846H359.921M287.937 359.615L287.937 419.385M287.937 359.615H359.921M287.937 419.385V479.154M287.937 419.385H359.921M287.937 479.154V538.923M287.937 479.154H359.921M287.937 538.923V598.692M287.937 538.923H359.921M287.937 598.692V658.461M287.937 598.692H359.921M287.937 658.461V718.231M287.937 658.461H359.921M287.937 718.231V778M287.937 718.231H359.921M287.937 778H359.921M503.89 1V60.7692M503.89 1H431.905M503.89 1H575.874M503.89 60.7692V120.538M503.89 60.7692H431.905M503.89 60.7692L575.874 60.7692M503.89 120.538V180.308M503.89 120.538H431.905M503.89 120.538H575.874M503.89 180.308V240.077M503.89 180.308L431.905 180.308M503.89 180.308H575.874M503.89 240.077V299.846M503.89 240.077H431.905M503.89 240.077H575.874M503.89 299.846V359.615M503.89 299.846H431.905M503.89 299.846H575.874M503.89 359.615L503.89 419.385M503.89 359.615L431.905 359.615M503.89 359.615H575.874M503.89 419.385V479.154M503.89 419.385L431.905 419.385M503.89 419.385H575.874M503.89 479.154V538.923M503.89 479.154L431.905 479.154M503.89 479.154H575.874M503.89 538.923V598.692M503.89 538.923H431.905M503.89 538.923H575.874M503.89 598.692V658.462M503.89 598.692L431.905 598.692M503.89 598.692H575.874M503.89 658.462V718.231M503.89 658.462L431.905 658.461M503.89 658.462H575.874M503.89 718.231V778M503.89 718.231L431.905 718.231M503.89 718.231H575.874M503.89 778H431.905M503.89 778H575.874M719.842 1V60.7693M719.842 1H647.858M719.842 1H791.827M719.842 60.7693V120.538M719.842 60.7693L647.858 60.7692M719.842 60.7693H791.827M719.842 120.538V180.308M719.842 120.538H647.858M719.842 120.538H791.827M719.842 180.308V240.077M719.842 180.308H647.858M719.842 180.308L791.827 180.308M719.842 240.077V299.846M719.842 240.077L647.858 240.077M719.842 240.077H791.827M719.842 299.846V359.615M719.842 299.846L647.858 299.846M719.842 299.846H791.827M719.842 359.615L719.842 419.385M719.842 359.615H647.858M719.842 359.615H791.827M719.842 419.385V479.154M719.842 419.385H647.858M719.842 419.385H791.827M719.842 479.154V538.923M719.842 479.154H647.858M719.842 479.154H791.827M719.842 538.923V598.692M719.842 538.923H647.858M719.842 538.923H791.827M719.842 598.692V658.462M719.842 598.692H647.858M719.842 598.692H791.827M719.842 658.462V718.231M719.842 658.462H647.858M719.842 658.462H791.827M719.842 718.231V778M719.842 718.231H647.858M719.842 718.231H791.827M719.842 778H647.858M719.842 778H791.827M359.921 1V60.7692M359.921 1H431.905M359.921 60.7692V120.538M359.921 60.7692L431.905 60.7692M359.921 120.538V180.308M359.921 120.538H431.905M359.921 180.308V240.077M359.921 180.308H431.905M359.921 240.077V299.846M359.921 240.077H431.905M359.921 299.846V359.615M359.921 299.846H431.905M359.921 359.615L359.921 419.385M359.921 359.615H431.905M359.921 419.385V479.154M359.921 419.385H431.905M359.921 479.154V538.923M359.921 479.154H431.905M359.921 538.923V598.692M359.921 538.923H431.905M359.921 598.692V658.461M359.921 598.692H431.905M359.921 658.461V718.231M359.921 658.461H431.905M359.921 718.231V778M359.921 718.231H431.905M359.921 778H431.905M575.874 1V60.7692M575.874 1H647.858M575.874 60.7692V120.538M575.874 60.7692H647.858M575.874 120.538V180.308M575.874 120.538L647.858 120.538M575.874 180.308V240.077M575.874 180.308H647.858M575.874 240.077V299.846M575.874 240.077H647.858M575.874 299.846V359.615M575.874 299.846H647.858M575.874 359.615L575.874 419.385M575.874 359.615H647.858M575.874 419.385V479.154M575.874 419.385H647.858M575.874 479.154V538.923M575.874 479.154H647.858M575.874 538.923V598.692M575.874 538.923H647.858M575.874 598.692V658.462M575.874 598.692H647.858M575.874 658.462V718.231M575.874 658.462H647.858M575.874 718.231V778M575.874 718.231H647.858M575.874 778H647.858M791.827 1V60.7693M791.827 1H863.811M791.827 60.7693V120.538M791.827 60.7693L863.811 60.7693M791.827 120.538V180.308M791.827 120.538L863.811 120.538M791.827 180.308V240.077M791.827 180.308H863.811M791.827 240.077V299.846M791.827 240.077H863.811M791.827 299.846V359.615M791.827 299.846H863.811M791.827 359.615V419.385M791.827 359.615H863.811M791.827 419.385V479.154M791.827 419.385H863.811M791.827 479.154V538.923M791.827 479.154H863.811M791.827 538.923V598.692M791.827 538.923H863.811M791.827 598.692V658.462M791.827 598.692H863.811M791.827 658.462V718.231M791.827 658.462H863.811M791.827 718.231V778M791.827 718.231H863.811M791.827 778H863.811M431.905 1V60.7692M431.905 60.7692V120.538M431.905 120.538V180.308M431.905 180.308L431.905 240.077M431.905 240.077V299.846M431.905 299.846V359.615M431.905 359.615V419.385M431.905 419.385V479.154M431.905 479.154V538.923M431.905 538.923L431.905 598.692M431.905 598.692V658.461M431.905 658.461V718.231M431.905 718.231V778M647.858 1V60.7692M647.858 60.7692V120.538M647.858 120.538V180.308M647.858 180.308V240.077M647.858 240.077V299.846M647.858 299.846V359.615M647.858 359.615V419.385M647.858 419.385V479.154M647.858 479.154V538.923M647.858 538.923V598.692M647.858 598.692V658.462M647.858 658.462V718.231M647.858 718.231V778M863.811 1V60.7693M863.811 1H935.795V778H863.811M863.811 60.7693V120.538M863.811 60.7693H935.794M863.811 120.538V180.308M863.811 120.538H935.794M863.811 180.308V240.077M863.811 180.308H935.794M863.811 240.077V299.846M863.811 240.077H935.794M863.811 299.846V359.615M863.811 299.846H935.794M863.811 359.615V419.385M863.811 359.615H935.794M863.811 419.385V479.154M863.811 419.385H935.794M863.811 479.154V538.923M863.811 479.154H935.794M863.811 538.923V598.692M863.811 538.923H935.794M863.811 598.692V658.462M863.811 598.692H935.794M863.811 658.462V718.231M863.811 658.462H935.794M863.811 718.231V778M863.811 718.231H935.794M576.189 1V60.7692M576.189 1H504.205V60.7692M576.189 1H648.173M576.189 60.7692V120.538M576.189 60.7692H504.205M576.189 60.7692L648.173 60.7692M576.189 120.538V180.308M576.189 120.538H504.205M576.189 120.538L648.173 120.538M576.189 180.308V240.077M576.189 180.308H504.205M576.189 180.308H648.173M576.189 240.077V299.846M576.189 240.077H504.205M576.189 240.077H648.173M576.189 299.846V359.615M576.189 299.846H504.205M576.189 299.846H648.173M576.189 359.615V419.385M576.189 359.615H504.205M576.189 359.615H648.173M576.189 419.385V479.154M576.189 419.385H504.205M576.189 419.385H648.173M576.189 479.154V538.923M576.189 479.154H504.205M576.189 479.154H648.173M576.189 538.923V598.692M576.189 538.923H504.205M576.189 538.923H648.173M576.189 598.692V658.461M576.189 598.692H504.205M576.189 598.692H648.173M576.189 658.461L576.189 718.231M576.189 658.461H504.205M576.189 658.461H648.173M576.189 718.231V778M576.189 718.231H504.205M576.189 718.231H648.173M576.189 778L504.205 778V718.231M576.189 778H648.173M504.205 60.7692V120.538M504.205 120.538V180.308M504.205 180.308V240.077M504.205 240.077V299.846M504.205 299.846V359.615M504.205 359.615V419.385M504.205 419.385V479.154M504.205 479.154V538.923M504.205 538.923V598.692M504.205 598.692V658.461M504.205 658.461V718.231M648.173 1V60.7692M648.173 1H720.158M648.173 60.7692V120.538M648.173 60.7692H720.158M648.173 120.538V180.308M648.173 120.538H720.158M648.173 180.308V240.077M648.173 180.308L720.158 180.308M648.173 240.077V299.846M648.173 240.077H720.158M648.173 299.846V359.615M648.173 299.846H720.158M648.173 359.615V419.385M648.173 359.615H720.158M648.173 419.385V479.154M648.173 419.385H720.158M648.173 479.154V538.923M648.173 479.154H720.158M648.173 538.923V598.692M648.173 538.923H720.158M648.173 598.692V658.461M648.173 598.692H720.158M648.173 658.461V718.231M648.173 658.461H720.158M648.173 718.231V778M648.173 718.231H720.158M648.173 778H720.158M720.158 1V60.7692M720.158 1H792.142M720.158 60.7692V120.538M720.158 60.7692L792.142 60.7692M720.158 120.538L720.158 180.308M720.158 120.538H792.142M720.158 180.308V240.077M720.158 180.308H792.142M720.158 240.077V299.846M720.158 240.077L792.142 240.077M720.158 299.846V359.615M720.158 299.846L792.142 299.846M720.158 359.615V419.385M720.158 359.615H792.142M720.158 419.385V479.154M720.158 419.385H792.142M720.158 479.154V538.923M720.158 479.154H792.142M720.158 538.923V598.692M720.158 538.923H792.142M720.158 598.692V658.461M720.158 598.692H792.142M720.158 658.461V718.231M720.158 658.461H792.142M720.158 718.231V778M720.158 718.231H792.142M720.158 778H792.142M792.142 1V60.7692M792.142 1H864.126M792.142 60.7692V120.538M792.142 60.7692H864.126M792.142 120.538V180.308M792.142 120.538L864.126 120.538M792.142 180.308V240.077M792.142 180.308H864.126M792.142 240.077V299.846M792.142 240.077H864.126M792.142 299.846V359.615M792.142 299.846H864.126M792.142 359.615L792.142 419.385M792.142 359.615H864.126M792.142 419.385V479.154M792.142 419.385H864.126M792.142 479.154V538.923M792.142 479.154H864.126M792.142 538.923V598.692M792.142 538.923H864.126M792.142 598.692V658.461M792.142 598.692H864.126M792.142 658.461V718.231M792.142 658.461H864.126M792.142 718.231V778M792.142 718.231H864.126M792.142 778H864.126M1008.09 1V60.7692M1008.09 1H936.11M1008.09 1H1080.08M1008.09 60.7692V120.538M1008.09 60.7692H936.11M1008.09 60.7692L1080.08 60.7692M1008.09 120.538V180.308M1008.09 120.538H936.11M1008.09 120.538H1080.08M1008.09 180.308V240.077M1008.09 180.308L936.11 180.308M1008.09 180.308H1080.08M1008.09 240.077V299.846M1008.09 240.077H936.11M1008.09 240.077H1080.08M1008.09 299.846V359.615M1008.09 299.846H936.11M1008.09 299.846H1080.08M1008.09 359.615V419.385M1008.09 359.615L936.11 359.615M1008.09 359.615H1080.08M1008.09 419.385V479.154M1008.09 419.385L936.11 419.385M1008.09 419.385H1080.08M1008.09 479.154V538.923M1008.09 479.154L936.11 479.154M1008.09 479.154H1080.08M1008.09 538.923V598.692M1008.09 538.923H936.11M1008.09 538.923H1080.08M1008.09 598.692V658.462M1008.09 598.692L936.11 598.692M1008.09 598.692H1080.08M1008.09 658.462V718.231M1008.09 658.462L936.11 658.461M1008.09 658.462H1080.08M1008.09 718.231V778M1008.09 718.231L936.11 718.231M1008.09 718.231H1080.08M1008.09 778H936.11M1008.09 778H1080.08M1224.05 1V60.7693M1224.05 1H1152.06M1224.05 1H1296.03M1224.05 60.7693V120.538M1224.05 60.7693L1152.06 60.7692M1224.05 60.7693H1296.03M1224.05 120.538V180.308M1224.05 120.538H1152.06M1224.05 120.538H1296.03M1224.05 180.308V240.077M1224.05 180.308H1152.06M1224.05 180.308L1296.03 180.308M1224.05 240.077V299.846M1224.05 240.077L1152.06 240.077M1224.05 240.077H1296.03M1224.05 299.846V359.615M1224.05 299.846L1152.06 299.846M1224.05 299.846H1296.03M1224.05 359.615L1224.05 419.385M1224.05 359.615H1152.06M1224.05 359.615H1296.03M1224.05 419.385V479.154M1224.05 419.385H1152.06M1224.05 419.385H1296.03M1224.05 479.154V538.923M1224.05 479.154H1152.06M1224.05 479.154H1296.03M1224.05 538.923V598.692M1224.05 538.923H1152.06M1224.05 538.923H1296.03M1224.05 598.692V658.462M1224.05 598.692H1152.06M1224.05 598.692H1296.03M1224.05 658.462V718.231M1224.05 658.462H1152.06M1224.05 658.462H1296.03M1224.05 718.231V778M1224.05 718.231H1152.06M1224.05 718.231H1296.03M1224.05 778H1152.06M1224.05 778H1296.03M864.126 1V60.7692M864.126 1H936.11M864.126 60.7692V120.538M864.126 60.7692L936.11 60.7692M864.126 120.538V180.308M864.126 120.538H936.11M864.126 180.308V240.077M864.126 180.308H936.11M864.126 240.077V299.846M864.126 240.077H936.11M864.126 299.846V359.615M864.126 299.846H936.11M864.126 359.615V419.385M864.126 359.615H936.11M864.126 419.385V479.154M864.126 419.385H936.11M864.126 479.154V538.923M864.126 479.154H936.11M864.126 538.923V598.692M864.126 538.923H936.11M864.126 598.692V658.461M864.126 598.692H936.11M864.126 658.461V718.231M864.126 658.461H936.11M864.126 718.231V778M864.126 718.231H936.11M864.126 778H936.11M1080.08 1V60.7692M1080.08 1H1152.06M1080.08 60.7692V120.538M1080.08 60.7692H1152.06M1080.08 120.538V180.308M1080.08 120.538L1152.06 120.538M1080.08 180.308V240.077M1080.08 180.308H1152.06M1080.08 240.077V299.846M1080.08 240.077H1152.06M1080.08 299.846V359.615M1080.08 299.846H1152.06M1080.08 359.615V419.385M1080.08 359.615H1152.06M1080.08 419.385V479.154M1080.08 419.385H1152.06M1080.08 479.154V538.923M1080.08 479.154H1152.06M1080.08 538.923V598.692M1080.08 538.923H1152.06M1080.08 598.692V658.462M1080.08 598.692H1152.06M1080.08 658.462V718.231M1080.08 658.462H1152.06M1080.08 718.231V778M1080.08 718.231H1152.06M1080.08 778H1152.06M1296.03 1V60.7693M1296.03 1H1368.02M1296.03 60.7693V120.538M1296.03 60.7693L1368.02 60.7693M1296.03 120.538V180.308M1296.03 120.538L1368.02 120.538M1296.03 180.308V240.077M1296.03 180.308H1368.02M1296.03 240.077V299.846M1296.03 240.077H1368.02M1296.03 299.846V359.615M1296.03 299.846H1368.02M1296.03 359.615V419.385M1296.03 359.615H1368.02M1296.03 419.385V479.154M1296.03 419.385H1368.02M1296.03 479.154V538.923M1296.03 479.154H1368.02M1296.03 538.923V598.692M1296.03 538.923H1368.02M1296.03 598.692V658.462M1296.03 598.692H1368.02M1296.03 658.462V718.231M1296.03 658.462H1368.02M1296.03 718.231V778M1296.03 718.231H1368.02M1296.03 778H1368.02M936.11 1V60.7692M936.11 60.7692V120.538M936.11 120.538V180.308M936.11 180.308V240.077M936.11 240.077V299.846M936.11 299.846V359.615M936.11 359.615V419.385M936.11 419.385V479.154M936.11 479.154V538.923M936.11 538.923L936.11 598.692M936.11 598.692V658.461M936.11 658.461V718.231M936.11 718.231V778M1152.06 1V60.7692M1152.06 60.7692V120.538M1152.06 120.538V180.308M1152.06 180.308V240.077M1152.06 240.077V299.846M1152.06 299.846V359.615M1152.06 359.615V419.385M1152.06 419.385V479.154M1152.06 479.154V538.923M1152.06 538.923V598.692M1152.06 598.692V658.462M1152.06 658.462V718.231M1152.06 718.231V778M1368.02 1V60.7693M1368.02 1H1440V778H1368.02M1368.02 60.7693V120.538M1368.02 60.7693H1440M1368.02 120.538V180.308M1368.02 120.538H1440M1368.02 180.308V240.077M1368.02 180.308H1440M1368.02 240.077V299.846M1368.02 240.077H1440M1368.02 299.846V359.615M1368.02 299.846H1440M1368.02 359.615V419.385M1368.02 359.615H1440M1368.02 419.385V479.154M1368.02 419.385H1440M1368.02 479.154V538.923M1368.02 479.154H1440M1368.02 538.923V598.692M1368.02 538.923H1440M1368.02 598.692V658.462M1368.02 598.692H1440M1368.02 658.462V718.231M1368.02 658.462H1440M1368.02 718.231V778M1368.02 718.231H1440" stroke="url(#paint0_linear_1_904)"/>
<defs>
<linearGradient id="paint0_linear_1_904" x1="0" y1="1" x2="1266.52" y2="964.921" gradientUnits="userSpaceOnUse">
<stop stop-color="white" stop-opacity="0.1"/>
<stop offset="1" stop-color="white" stop-opacity="0"/>
</linearGradient>
</defs>
</svg>
