<?xml version="1.0" encoding="UTF-8"?>
<svg id="katman_1" xmlns="http://www.w3.org/2000/svg" version="1.1" xmlns:xlink="http://www.w3.org/1999/xlink" viewBox="0 0 872.7 590.2">
  <!-- Generator: Adobe Illustrator 29.7.1, SVG Export Plug-In . SVG Version: 2.1.1 Build 8)  -->
  <defs>
    <style>
      .st0 {
        fill: url(#Adsız_degrade_6);
      }

      .st1 {
        fill: #2f2e41;
      }

      .st2 {
        fill: url(#Adsız_degrade_3);
      }

      .st3 {
        fill: #fff;
      }

      .st4 {
        fill: #ffb6b6;
      }

      .st5 {
        fill: url(#Adsız_degrade_4);
      }

      .st6 {
        fill: #9e616a;
      }

      .st7 {
        fill: #3f3d56;
      }

      .st8 {
        fill: #f2f2f2;
      }

      .st9 {
        fill: #ffb8b8;
      }

      .st10 {
        fill: url(#Adsız_degrade);
      }

      .st11 {
        fill: url(#Adsız_degrade_7);
      }

      .st12 {
        fill: url(#Adsız_degrade_8);
      }

      .st13 {
        display: none;
      }

      .st14 {
        fill: url(#Adsız_degrade_5);
      }

      .st15 {
        fill: url(#Adsız_degrade_2);
      }

      .st16 {
        fill: #e4e4e4;
      }

      .st17 {
        fill: #6c63ff;
      }

      .st18 {
        fill: #e6e6e6;
      }
    </style>
    <linearGradient id="Adsız_degrade" data-name="Adsız degrade" x1="477.4" y1="310.4" x2="515.5" y2="310.4" gradientTransform="translate(0 590) scale(1 -1)" gradientUnits="userSpaceOnUse">
      <stop offset="0" stop-color="#f59a0c"/>
      <stop offset="1" stop-color="#f97416"/>
    </linearGradient>
    <linearGradient id="Adsız_degrade_2" data-name="Adsız degrade 2" x1="373.7" y1="421.9" x2="385.8" y2="421.9" gradientTransform="translate(0 590) scale(1 -1)" gradientUnits="userSpaceOnUse">
      <stop offset="0" stop-color="#f59a0c"/>
      <stop offset="1" stop-color="#f97416"/>
    </linearGradient>
    <linearGradient id="Adsız_degrade_3" data-name="Adsız degrade 3" x1="189.1" y1="218.1" x2="240.3" y2="218.1" gradientTransform="translate(0 590) scale(1 -1)" gradientUnits="userSpaceOnUse">
      <stop offset="0" stop-color="#f59b0c"/>
      <stop offset="1" stop-color="#f97715"/>
    </linearGradient>
    <linearGradient id="Adsız_degrade_4" data-name="Adsız degrade 4" x1="189.1" y1="230.4" x2="240.3" y2="230.4" gradientTransform="translate(0 590) scale(1 -1)" gradientUnits="userSpaceOnUse">
      <stop offset="0" stop-color="#f59b0c"/>
      <stop offset="1" stop-color="#f97715"/>
    </linearGradient>
    <linearGradient id="Adsız_degrade_5" data-name="Adsız degrade 5" x1="189.1" y1="205.8" x2="240.3" y2="205.8" gradientTransform="translate(0 590) scale(1 -1)" gradientUnits="userSpaceOnUse">
      <stop offset="0" stop-color="#f59e0b"/>
      <stop offset="1" stop-color="#f97316"/>
    </linearGradient>
    <linearGradient id="Adsız_degrade_6" data-name="Adsız degrade 6" x1="779.8" y1="243.4" x2="846.5" y2="243.4" gradientTransform="translate(0 590) scale(1 -1)" gradientUnits="userSpaceOnUse">
      <stop offset="0" stop-color="#f5980d"/>
      <stop offset="1" stop-color="#f97615"/>
    </linearGradient>
    <linearGradient id="Adsız_degrade_7" data-name="Adsız degrade 7" x1="768.4" y1="230.6" x2="835.1" y2="230.6" gradientTransform="translate(0 590) scale(1 -1)" gradientUnits="userSpaceOnUse">
      <stop offset="0" stop-color="#f5980d"/>
      <stop offset="1" stop-color="#f97615"/>
    </linearGradient>
    <linearGradient id="Adsız_degrade_8" data-name="Adsız degrade 8" x1="757" y1="217.7" x2="823.7" y2="217.7" gradientTransform="translate(0 590) scale(1 -1)" gradientUnits="userSpaceOnUse">
      <stop offset="0" stop-color="#f5980d"/>
      <stop offset="1" stop-color="#f97615"/>
    </linearGradient>
  </defs>
  <path class="st3" d="M277.6,480c-6.1-5.1-7.7-14-3.6-20.9.4-.7,1.5,0,1.1.6-3.8,6.4-2.4,14.7,3.4,19.4.6.5-.3,1.4-.9.9h0Z"/>
  <g class="st13">
    <path class="st8" d="M58.7,444.7c-4.1,0-8.3.2-12.4.5h-.6C18.9,447.7-.8,461.5,0,477.4l.2,2.9c.1,1.8.2,3.8.3,5.9,0,1.1,1.5,1.9,3.3,1.9h661.6c46.6-.3,93.1-.6,138.1-1.1,8.4,0,16.9-.4,25.3-1.3,12.5-1.5,21.2-4.4,26.5-9h0c6.7-5.7,6.9-12.8,6.5-20.8-.8-16.2-1.6-33.3-2.4-50.3-.7-15-1.4-29.9-2.1-44.2-.4-8.5-1.4-16-9-21.7-8.2-6.2-23.1-9.3-44.4-9.3s-.5,0-.8,0c-66.7.2-132.8,23.2-164.4,57.1-3.6,3.9-7,8.1-10.3,12.1-4.9,6-9.9,12.1-15.9,17.7-3.2,3-6.8,5.8-10.5,8.2-.3.2-.6.4-.9.5-.7.5-1.5.9-2.2,1.3-4.2,2.5-8.7,4.5-13.4,6.1l-.5.2c-.4.1-.7.3-1.1.4-2.7.9-5.5,1.6-8.3,2.2-12.1,2.7-25.8,3.3-40.8,1.9-13.8-1.3-27.4-4.1-40.6-8.3-13.9-4.4-26.9-9.9-39.5-15.2-5.5-2.3-11.2-4.7-16.9-7-1.1-.4-2.1-.8-3.2-1.3-7-2.7-13.3-5-19.3-6.9-14.9-4.7-30.4-7.6-46-8.5-16.6-.9-31.2.8-43.4,5.1-3.4,1.2-6.7,2.6-9.8,4.2-14.5,7.5-23.4,18.6-32.1,29.4-10.7,13.4-21.9,27.2-43.8,34.3-25.3,8.3-62.3,4.8-88.4-1.1-8.2-1.9-16.4-4-24.4-6.1-3.2-.8-6.4-1.7-9.6-2.5-6.3-1.6-11.5-2.9-16.3-3.9l-1.5-.3c-.8-.2-1.7-.4-2.5-.5-5.7-1.2-11-2.1-16.2-2.9l-1.2-.2c-2.5-.3-4.8-.6-7-.8h-.9c-4.4-.5-9-.7-13.6-.7h0Z"/>
    <path class="st18" d="M742.9,462.5c18.6-16.8,46.3-25.2,69.5-15.8-23.8,13.2-42.2,34.5-51.9,59.9-3.7,9.8-6.8,21.2-15.9,26.4-5.7,3.3-12.7,3.4-19,1.9-6.3-1.6-12.2-4.8-17.9-7.9h-1.6c7.3-24,18.2-47.7,36.8-64.5Z"/>
    <path class="st3" d="M812.3,447.2c-20.6,2.7-39.8,11.7-54.9,25.9-3.3,3-6.1,6.5-8.3,10.4-2,3.8-3,8.2-2.8,12.5.1,4.1.7,8.2-.2,12.2-1,4.1-3.7,7.7-7.4,9.7-4.5,2.6-9.8,3.4-14.9,4.1-5.7.7-11.6,1.3-16.5,4.5-.6.4-1.2-.6-.6-.9,8.6-5.6,19.4-3.5,28.6-7.2,4.3-1.7,8.1-4.8,9.5-9.4,1.2-4,.6-8.3.5-12.4-.3-4.2.5-8.5,2.3-12.3,2-4,4.7-7.6,7.9-10.7,7.1-7,15.4-12.9,24.3-17.4,10.2-5.2,21.2-8.6,32.6-10.1.7,0,.7,1,0,1.1h0Z"/>
    <path class="st3" d="M762,468.3c-4.2-5.9-3.5-14,1.6-19.1.5-.5,1.3.3.8.8-4.8,4.7-5.4,12.3-1.5,17.8.4.6-.5,1.1-.9.6h0Z"/>
    <path class="st3" d="M745.9,494c7.1,1.3,14.4-.2,20.4-4.1.6-.4,1.2.6.6.9-6.3,4-13.9,5.5-21.2,4.2-.7-.1-.4-1.2.3-1.1h0Z"/>
    <path class="st3" d="M790,452.4c1.1,2.6,3.5,4.4,6.3,4.9.7.1.4,1.2-.3,1.1-3.1-.5-5.7-2.6-6.9-5.4-.1-.3,0-.6.2-.8.3-.2.6,0,.8.2h0Z"/>
    <path class="st18" d="M838,527.6c-.4,0-.9-.1-1.3-.2-5.9-.8-11.9-1.1-17.9-.9-.5,0-.9,0-1.4,0-14.4.6-28.5,3.9-41.8,9.6-5.3,2.3-10.3,5-15.2,8.1-6.7,4.2-13.6,9.4-21.1,11.1-.8.2-1.6.3-2.4.4l-30.9-26.7c0,0,0-.2-.1-.3l-1.3-1c.2-.2.5-.4.7-.5.1-.1.3-.2.4-.3,0,0,.2-.1.3-.2,0,0,0,0,0,0,0,0,.2-.1.2-.2,1.4-1,2.8-2,4.2-3,0,0,0,0,0,0,10.8-7.5,22.4-13.8,34.6-18.6.4-.1.7-.3,1.1-.4,5.5-2,11.2-3.6,16.9-4.8,3.2-.6,6.3-1.1,9.6-1.3,8.3-.7,16.6-.1,24.7,1.8,16.1,3.7,30.9,12.6,39.7,26.4.2.4.4.7.7,1.1h0Z"/>
    <path class="st3" d="M837.6,527.9c-18-10.3-38.8-14.6-59.5-12.4-4.4.4-8.8,1.5-12.9,3.3-3.9,1.8-7.3,4.7-9.8,8.3-2.4,3.3-4.4,7-7.5,9.6-3.3,2.7-7.6,3.9-11.8,3.3-5.2-.7-9.9-3.1-14.3-5.7-5-2.9-10.1-5.9-15.9-6.3-.7,0-.6-1.1.1-1.1,10.2.7,17.6,8.9,27.2,11.5,4.5,1.2,9.3,1.1,13.2-1.8,3.4-2.5,5.5-6.3,7.8-9.6,2.4-3.5,5.5-6.4,9.3-8.5,4-2,8.3-3.2,12.7-3.7,9.9-1.3,20-1.1,29.9.7,11.3,2,22.1,5.9,32.1,11.6.6.4,0,1.2-.7.9h0s0,0,0,0Z"/>
    <path class="st3" d="M784.8,514.5c.2-7.3,5.6-13.3,12.8-14.3.7,0,.9,1,.2,1.1-6.7.9-11.7,6.5-11.9,13.3,0,.7-1.1.6-1.1-.1h0Z"/>
    <path class="st3" d="M756.4,525.3c4.9,5.3,11.6,8.5,18.7,9,.7,0,.6,1.2-.1,1.1-7.4-.6-14.4-3.9-19.5-9.4-.5-.5.4-1.2.9-.7h0Z"/>
    <path class="st3" d="M816.7,518.7c-.6,2.7.1,5.6,2.1,7.7.5.5-.4,1.2-.9.7-2.1-2.3-3-5.5-2.3-8.5,0-.3.3-.5.6-.5.3,0,.5.3.5.6h0Z"/>
    <path class="st18" d="M255.5,479.2c15.2-23.1,42.5-39.8,70-36.2-21.8,20.8-35.6,48.6-38.8,78.5-1.2,11.6-1.4,24.5-9.6,32.7-5.1,5.1-12.6,7.2-19.9,7.3-7.2,0-14.3-1.7-21.3-3.5l-1.8.4c1.2-27.7,6.2-56.1,21.4-79.2h0Z"/>
    <path class="st3" d="M325.5,443.5c-21.3,8.6-39.3,23.6-51.5,43-2.7,4.1-4.7,8.7-6,13.4-1.1,4.7-1,9.6.5,14.2,1.2,4.3,3,8.6,3.2,13.1.1,4.7-1.8,9.2-5.2,12.4-4.1,4.1-9.5,6.4-14.8,8.5-5.9,2.3-12.1,4.7-16.4,9.4-.5.6-1.4-.3-.9-.9,7.6-8.3,19.8-9.2,28.6-15.7,4.1-3,7.3-7.4,7.5-12.6.1-4.6-1.7-9-3-13.4-1.4-4.5-1.8-9.2-1-13.8,1-4.8,2.9-9.4,5.5-13.6,5.7-9.5,12.8-18.1,21.2-25.4,9.5-8.4,20.3-15.1,32.1-19.8.7-.3,1,.9.3,1.2h0Z"/>
    <path class="st3" d="M267.5,512c7.9-.6,15.3-4.2,20.7-10,.5-.6,1.4.3.9.9-5.6,6.1-13.3,9.8-21.5,10.4-.8,0-.8-1.2,0-1.2h0Z"/>
    <path class="st3" d="M303.1,455.3c1.9,2.4,5,3.8,8.1,3.5.8,0,.8,1.2,0,1.2-3.4.3-6.8-1.2-8.9-3.8-.2-.2-.2-.6,0-.9.2-.2.6-.2.9,0h0Z"/>
    <path class="st18" d="M375.4,522.3c-.5,0-1,.1-1.5.2-6.6.8-13,2.1-19.4,4-.5.1-1,.3-1.5.4-15.2,4.6-29.5,12.1-42,21.9-5,3.9-9.6,8.2-14,12.8-6,6.4-11.9,13.8-19.5,17.7-.8.4-1.6.8-2.4,1.1l-40.5-20c0,0-.1-.2-.2-.3l-1.7-.7c.2-.3.4-.5.6-.8.1-.1.2-.3.4-.4,0,0,.2-.2.2-.3,0,0,0,0,0,0,0,0,.1-.2.2-.3,1.2-1.5,2.5-2.9,3.7-4.3,0,0,0,0,0,0,9.5-10.9,20.1-21.2,31.8-29.5.4-.3.7-.5,1.1-.8,5.3-3.7,10.9-7,16.8-9.8,3.2-1.5,6.5-2.9,9.8-4.1,8.7-3.1,17.7-4.8,26.9-5,18.3-.5,36.6,4.9,49.8,17.2.3.3.7.6,1,1Z"/>
    <path class="st3" d="M375,522.8c-22.1-6-45.6-4.8-67,3.3-4.6,1.7-9,4.1-12.9,7.1-3.7,3.1-6.5,7.1-8.2,11.6-1.6,4.2-2.8,8.7-5.4,12.4-2.7,3.8-7,6.3-11.7,6.8-5.7.8-11.4-.6-16.9-2.1-6.1-1.7-12.4-3.5-18.8-2.4-.8.1-1-1.1-.2-1.2,11.1-2.1,21.3,4.6,32.3,4.7,5.1,0,10.3-1.4,13.6-5.6,2.9-3.6,4.1-8.2,5.7-12.5,1.5-4.4,4.1-8.4,7.6-11.6,3.7-3.2,8-5.8,12.6-7.5,10.3-4.2,21.1-6.7,32.2-7.5,12.6-1,25.3.2,37.5,3.5.8.2.3,1.3-.5,1.1h0Z"/>
    <path class="st3" d="M314.8,523.1c-1.8-7.8,2.3-15.8,9.7-18.8.7-.3,1.2.8.5,1.1-6.9,2.8-10.7,10.3-9,17.5.2.8-1,.9-1.2.2h0Z"/>
    <path class="st3" d="M287.5,542.6c6.7,4.3,14.7,5.8,22.6,4.4.8-.1,1,1.1.2,1.2-8.1,1.5-16.5-.2-23.5-4.7-.7-.4,0-1.4.7-1h0Z"/>
    <path class="st3" d="M350,518.7c0,3.1,1.7,6,4.3,7.6.7.4,0,1.4-.7,1-2.9-1.8-4.7-5-4.8-8.4,0-.3.2-.6.5-.7.3,0,.6.2.7.5h0Z"/>
  </g>
  <path class="st4" d="M364,305.8c3.8-3.8,3.8-10,0-13.8-.4-.4-.8-.8-1.3-1.1l15.9-77.1-17.2,5.4-12.8,74.6c-2.8,4.6-1.3,10.7,3.3,13.5,3.9,2.4,8.9,1.7,12.1-1.5h0Z"/>
  <path class="st18" d="M400.9,99.7l-10.6-8s-9.4-.7-11.1,16.3-12.1,82-12.1,82l-16.3,75.5,22.6,5,17.5-81.4,17.5-56.2-7.4-33h0Z"/>
  <path class="st7" d="M392.8,239.4l-51.1-39.7c-1.7-1.3-2-3.7-.7-5.3l34.8-44.7c1.3-1.7,3.7-2,5.3-.7l51.1,39.7c1.7,1.3,2,3.7.7,5.3l-34.8,44.7c-1.3,1.7-3.7,2-5.3.7h0Z"/>
  <path class="st3" d="M392.5,235.2l-46.7-36.3c-1.5-1.1-1.7-3.3-.6-4.7l31.5-40.5c1.1-1.5,3.3-1.7,4.7-.6l46.7,36.3c1.5,1.1,1.7,3.3.6,4.7l-31.5,40.5c-1.1,1.5-3.3,1.7-4.7.6h0Z"/>
  <path class="st16" d="M351.9,197.9c-.4-.3-.4-.8-.1-1.2l15.9-20.4c.3-.4.8-.4,1.2-.1.4.3.4.8.1,1.2h0l-15.9,20.4c-.3.4-.8.4-1.2.1h0Z"/>
  <path class="st16" d="M354.5,199.9c-.4-.3-.4-.8-.1-1.2l15.9-20.4c.3-.4.8-.4,1.2-.1.4.3.4.8.1,1.2l-15.9,20.4c-.3.4-.8.4-1.2.1h0Z"/>
  <path class="st16" d="M366.1,190.4c-.4-.3-.4-.8-.1-1.2l6.9-8.9c.3-.4.8-.4,1.2-.1s.4.8.1,1.2h0l-6.9,8.9c-.3.4-.8.4-1.2.1h0Z"/>
  <path class="st16" d="M369.7,207.8c-.4-.3-.4-.8-.1-1.2l25.1-32.3c.3-.4.8-.4,1.2-.1.4.3.4.8.1,1.2h0l-25.1,32.3c-.3.4-.8.4-1.2.1Z"/>
  <path class="st16" d="M372.3,209.8c-.4-.3-.4-.8-.1-1.2l25.1-32.3c.3-.4.8-.4,1.2-.1.4.3.4.8.1,1.2l-25.1,32.3c-.3.4-.8.4-1.2.1Z"/>
  <path class="st16" d="M378.3,214.5c-.4-.3-.4-.8-.1-1.2l25.1-32.3c.3-.4.8-.4,1.2-.1.4.3.4.8.1,1.2l-25.1,32.3c-.3.4-.8.4-1.2.1Z"/>
  <path class="st16" d="M380.9,216.5c-.4-.3-.4-.8-.1-1.2l25.1-32.3c.3-.4.8-.4,1.2-.1.4.3.4.8.1,1.2l-25.1,32.3c-.3.4-.8.4-1.2.1h0Z"/>
  <path class="st16" d="M386.9,221.2c-.4-.3-.4-.8-.1-1.2l25.1-32.3c.3-.4.8-.4,1.2-.1.4.3.4.8.1,1.2h0l-25.1,32.3c-.3.4-.8.4-1.2.1Z"/>
  <path class="st16" d="M389.5,223.2c-.4-.3-.4-.8-.1-1.2l25.1-32.3c.3-.4.8-.4,1.2-.1.4.3.4.8.1,1.2l-25.1,32.3c-.3.4-.8.4-1.2.1h0Z"/>
  <circle class="st3" cx="347.6" cy="260.3" r=".3"/>
  <path class="st1" d="M398.1,21.8c-1.2,6.6-3.2,12.9-6,19-15.7,33.2,29,22.3,44.9,22.3s34.1,9.2,31.6-31.6C467.6,14.2,454.5,0,437.1,0s-35.8,6.6-39,21.8h0Z"/>
  <polygon class="st4" points="453.3 508.1 438.5 508.1 431.4 450.8 453.3 450.8 453.3 508.1"/>
  <path class="st1" d="M461.2,533.8h-10.7l-1.9-10.1-4.9,10.1h-28.3c-3.5,0-6.4-2.8-6.4-6.4,0-2.1,1-4,2.7-5.2l22.6-15.6v-10.2l23.7,1.4,3,35.9h0Z"/>
  <polygon class="st4" points="541.6 489.3 529.7 498.2 489.8 456.4 507.4 443.3 541.6 489.3"/>
  <path class="st1" d="M563.3,505.3l-8.6,6.4-7.5-6.9,2.1,11-22.7,16.9c-2.8,2.1-6.8,1.5-8.9-1.3-1.2-1.7-1.6-3.9-.9-5.8l8.8-26-6.1-8.2,19.9-13,23.8,27Z"/>
  <polygon class="st4" points="404.7 244.3 475.2 233.3 461.2 191.1 404.7 191.1 404.7 244.3"/>
  <path class="st1" d="M470.6,212.4s28.2,24.4,15.2,93.8l-15.9,68,43.3,75.1-22,12-53.3-74.1-24.4-57.2-12.9-100.3,70.1-17.3h0Z"/>
  <polygon class="st1" points="426.9 346.3 425.2 372.6 430.2 450.3 454.9 458.8 459.5 379.1 426.9 346.3"/>
  <path class="st18" d="M419.4,71.9l27.3,1.1,10.9,18,24.8,4.8-14.8,74.9,2.7,42.6-24.7-.2c-17.8-.1-35,6.4-48.3,18.2h0l.7-55.3-10.6-41.3,2.4-43.3,19.9-2.5,9.7-17h0Z"/>
  <circle class="st4" cx="434.5" cy="37.5" r="25.7"/>
  <path class="st1" d="M417,11.3c13.9-8.5,31.9-4.1,40.4,9.8,2.9,4.8,4.4,10.3,4.3,15.9-13.1,3.3-26.8,5.8-40.8.8l-3.3-8.1-1.9,8.1c-4.2,1.7-8.5,3.2-12.8,0-.4-10.7,5-20.8,14.1-26.4h0Z"/>
  <path class="st10" d="M477.5,265.1l3.5,31.4c.5,1.6,2,2.7,3.7,2.7h15.9c1.7,0,3.2-1.1,3.7-2.7l2.9-24.1c2.9,1.4,6.4.2,7.8-2.7s.2-6.4-2.7-7.8c-1.1-.6-2.4-.7-3.6-.5-.7-.9-1.8-1.3-2.9-1.3h-24.5c-2.1,0-3.8,1.7-3.8,3.8,0,.4,0,.8.2,1.1h0ZM507.6,270.8l1.8-5.7c.2-.7.2-1.4,0-2,0,0,.1,0,.2,0,2.3,0,4.2,1.9,4.2,4.2,0,2.3-1.9,4.2-4.2,4.2h0c-.7,0-1.4-.2-2-.6h0Z"/>
  <path class="st4" d="M501.6,299.2c-3.8-3.8-3.8-10,0-13.8.4-.4.8-.8,1.3-1.1l-15.5-77.2,17.2,5.5,12.4,74.7c2.8,4.6,1.3,10.7-3.4,13.5-3.9,2.3-8.9,1.7-12-1.5h0Z"/>
  <path class="st18" d="M471.6,103.9l10.6-8s9.4-.7,11.1,16.3,12.1,82,12.1,82l16.3,75.5-22.6,5-17.5-81.4-17.5-56.2,7.4-33h0Z"/>
  <circle class="st15" cx="379.7" cy="168.1" r="6"/>
  <polygon class="st4" points="187.5 578 200.1 578 206.1 529.6 187.5 529.6 187.5 578"/>
  <path class="st1" d="M184.3,573.9h3.5l13.8-5.6,7.4,5.6h0c8.7,0,15.8,7.1,15.8,15.8v.5h-40.5s0-16.3,0-16.3h0Z"/>
  <polygon class="st4" points="236.2 570.1 248.5 572.9 265 526.9 246.9 522.8 236.2 570.1"/>
  <path class="st1" d="M234,565.4l3.4.8,14.7-2.4,6,7.1h0c8.5,1.9,13.8,10.4,11.9,18.8v.5c-.1,0-39.6-8.9-39.6-8.9l3.6-15.9h0Z"/>
  <path class="st1" d="M164.5,328.8l11.4,127.3s-4.3,76.4,9.5,103.3h19.9l9.9-110.3,1.2-74,42.7,62.4-27.2,120,24.5,2.2,44.1-130.3-48.5-122.3-87.5,21.6h0Z"/>
  <circle class="st9" cx="176.4" cy="96.8" r="29.3"/>
  <path class="st7" d="M227.9,154l-24-10.3-11.7-12.4-29.2,4.7-7.8,13.3-25.1,23.3,29.4,133-.9,29s18.8,8.5,100.5-11c1-.2-1.1-1.3-1.1-1.3l-30.1-168.4h0Z"/>
  <path class="st1" d="M146,113.5c-.2-.3-.4-.6-.6-.8,0,.2-.1.3-.2.5l.8.3h0Z"/>
  <path class="st1" d="M205.6,75.4c-2-4.3-5.4-7.6-9.8-9.4-4.3-1.7-9.1-1.7-13.4,0-3.9-2.4-8.2-4.4-12.7-4.6s-9.3,1.4-12.1,5.1c-.6,1-1.3,1.9-2.1,2.7-2.2,2.1-5.7,1.8-8.6,1.4,1.3,1.1,2.7,2.3,4,3.4-1.6.4-3.2.8-4.9,1.3,1.9,1.1,3.8,2.3,5.7,3.4-5.5,3.3-8,10.5-7.3,17,.6,6.2,3.6,11.8,7.2,16.9,1.4-3,1.1-6.6,1.1-10,0-3.6.6-7.6,3.5-9.6,1.9-1.3,4.4-1.4,6.7-1.4,11.8,0,23.5.8,35.2,2.2,1.6,0,3.1.5,4.5,1.3,2.6,1.8,3.1,5.4,3.3,8.6,1.4-5.3,2-10.7,2-16.1.1-4.2-.6-8.3-2.2-12.2h0Z"/>
  <circle class="st3" cx="214.7" cy="371.9" r="46.1"/>
  <path class="st7" d="M214.7,324.8c-2.4,0-4.7.2-7.1.5-1.2.2-2.4.4-3.5.7-25.4,5.8-41.2,31.1-35.3,56.5,2.3,9.9,7.7,18.7,15.4,25.3.8.7,1.6,1.3,2.4,1.9,20.9,15.6,50.4,11.3,65.9-9.6s11.3-50.4-9.6-65.9c-8.1-6.1-18-9.3-28.2-9.3h0ZM214.7,417c-9.6,0-18.9-3.1-26.6-8.7-.8-.6-1.6-1.2-2.4-1.9-19-16-21.4-44.5-5.4-63.5,6.6-7.8,15.5-13.1,25.5-15.1,1.1-.2,2.3-.4,3.5-.6,1.8-.2,3.7-.3,5.5-.3,24.9,0,45.1,20.2,45.1,45.1s-20.2,45.1-45.1,45.1h0Z"/>
  <rect class="st17" x="189.1" y="356.5" width="51.2" height="6.1" rx="3" ry="3"/>
  <rect class="st2" x="189.1" y="368.8" width="51.2" height="6.1" rx="3" ry="3"/>
  <rect class="st5" x="189.1" y="356.5" width="51.2" height="6.1" rx="3" ry="3"/>
  <rect class="st14" x="189.1" y="381.1" width="51.2" height="6.1" rx="3" ry="3"/>
  <polygon class="st6" points="730.5 576.4 717.3 576.4 711.1 525.6 730.5 525.6 730.5 576.4"/>
  <polygon class="st6" points="668.2 576.4 655 576.4 648.8 525.6 668.2 525.6 668.2 576.4"/>
  <path class="st1" d="M668.7,590.2h-40.5v-.5c0-8.7,7.1-15.8,15.8-15.8h0l7.4-5.6,13.8,5.6h3.5v16.3s0,0,0,0Z"/>
  <path class="st1" d="M732.7,590.2h-40.5v-.5c0-8.7,7.1-15.8,15.8-15.8h0l7.4-5.6,13.8,5.6h3.5v16.3s0,0,0,0Z"/>
  <path class="st1" d="M655.3,275.8l-20,121.9,5.4,18.2-7.1,12.9,10.5,113-4.3,9.4,11.9,7.3h24.2l1.3-102.3,6-15v-8.3l12.2-62.4,2.2,87.3,3.5,15-3,10.7,3.9,7.5,10.3,69.6h27.2l-2.1-16.2h0c4.9-2.5,7.5-7.9,6.3-13.2l-1.6-7.1,3.5-21,6.5-117-1.8-94.4-31.8-24.3-63.3,8.4h0Z"/>
  <circle id="ab6171fa-7d69-4734-b81c-8dff60f9761b" class="st6" cx="701.2" cy="94" r="25.2"/>
  <path class="st6" d="M646,324.1c4.1-4.3,4-11.1-.2-15.3-.5-.4-1-.8-1.5-1.2l9.8-37.1-18.9,6.4-6.4,34.3c-3,5.2-1.3,11.8,3.9,14.8,4.3,2.5,9.8,1.7,13.3-1.9h0Z"/>
  <path id="bc44dde2-a388-4b93-9ca4-c442728432a9-1" class="st18" d="M656.4,146l-4.1-.8-3.5,1.9s-9.7,12.9-9.7,24.7-11.8,125.7-11.8,125.7l21.5,9.7,17.2-89.2-9.7-72h0Z"/>
  <path id="bf427902-b9bf-4946-b5d7-5c1c7e04535e-2" class="st1" d="M723.3,75.5s6.6-12.6-7.9-13.8c0,0-12.4-11.2-25-2.1,0,0-6.9,0-10.6,7.8,0,0-5.4-2.1-6.6,3.4,0,0-4,11.5,0,21.8s5.3,11.5,5.3,11.5c0,0-6.5-21.6,9.3-22.8s33.6-11,34.9,1.6,3.3,15.7,3.3,15.7c0,0,12.5-18-2.6-23.2h0Z"/>
  <path class="st3" d="M815.5,428.7c-1.9,0-3.7-.7-5.2-2l-76.4-68c-3.2-2.9-3.5-7.8-.6-11l48.9-55c2.9-3.2,7.8-3.5,11-.6l76.4,68c3.2,2.9,3.5,7.8.6,11l-48.9,55c-1.4,1.5-3.3,2.5-5.4,2.6-.2,0-.3,0-.5,0h0Z"/>
  <path class="st7" d="M815.5,429.2c-2,0-4-.7-5.5-2.1l-76.4-68c-3.4-3-3.7-8.3-.7-11.7l48.9-55c3-3.4,8.3-3.7,11.7-.7l76.4,68c3.4,3,3.7,8.3.7,11.7l-48.9,55c-1.5,1.6-3.5,2.6-5.7,2.8-.2,0-.3,0-.5,0h0ZM788,291.7c-1.8,0-3.5.8-4.7,2.1l-48.9,55c-2.3,2.6-2.1,6.6.5,8.9l76.4,68c2.6,2.3,6.6,2.1,8.9-.5,0,0,0,0,0,0l48.9-55c2.3-2.6,2.1-6.6-.5-8.9l-76.4-68c-1.1-1-2.6-1.6-4.2-1.6h0,0Z"/>
  <path class="st0" d="M843.2,376.6c-.8,0-1.6-.3-2.2-.9l-60-53.4c-1.4-1.2-1.5-3.4-.3-4.8,1.2-1.4,3.4-1.5,4.8-.3,0,0,0,0,0,0l60,53.4c1.4,1.2,1.5,3.4.3,4.8-.6.7-1.6,1.1-2.5,1.1h0Z"/>
  <path class="st11" d="M831.7,389.5c-.8,0-1.6-.3-2.2-.9l-60-53.4c-1.4-1.2-1.5-3.4-.3-4.8s3.4-1.5,4.8-.3h0l60,53.4c1.4,1.2,1.5,3.4.3,4.8-.6.7-1.6,1.1-2.5,1.1h0Z"/>
  <path class="st12" d="M820.3,402.3c-.8,0-1.6-.3-2.2-.9l-60-53.4c-1.4-1.2-1.5-3.4-.3-4.8s3.4-1.5,4.8-.3l60,53.4c1.4,1.2,1.5,3.4.3,4.8-.6.7-1.6,1.1-2.5,1.1h0Z"/>
  <path class="st6" d="M751.7,326.3c-2.9-5.2-1-11.8,4.2-14.7.6-.3,1.1-.6,1.7-.8v-38.4c0,0,16.7,11,16.7,11l-2.6,34.8c1.6,5.8-1.8,11.8-7.6,13.3-4.8,1.3-10-.9-12.4-5.2h0Z"/>
  <path id="f348f81f-b961-4ae4-bc6b-758f6acfb12a-3" class="st18" d="M753.3,156.5l7.4-7.2,5.5,3.9s5.4,6.4,9.7,25.8,0,125.7,0,125.7l-23.6-3.2,3.2-55.9-9.7-47.3,7.5-41.9h0Z"/>
  <path class="st7" d="M764.2,151.1l-25-12-17-15.8-31-.2-10,13-26.4,9,4.4,91-3,7s2.1,1.9,3,2.9-1.3,9.9-1.3,9.9l-1.3,9.6,3.6,2.5-4.6,5.5-1.1,8.6s80.7-20.1,96,13.2c.8,1.8-1.2-15.4-1.2-15.4l-2-12.6,2-11.3,3-3-5-5,3.2-23.9,13.8-73.1h0Z"/>
  <path class="st9" d="M196.4,352.9c2.3-6-.6-12.7-6.5-15-.6-.3-1.3-.4-2-.6l-5.6-40.8-16.1,14.1,7.8,36.6c-.9,6.4,3.6,12.2,10,13.1,5.3.7,10.5-2.3,12.4-7.4h0Z"/>
  <path id="e1bf2fad-858c-4bea-9733-320cc40b59f5-4" class="st7" d="M133.2,171.9l-4.4.8-2.6,3.3s-4.3,16.8.6,28.5,40.1,129.5,40.1,129.5l25.3.7-19.7-95.5-39.2-67.4h0Z"/>
  <path class="st9" d="M232.9,346.9c-4.4-4.7-4.2-12,.5-16.4.5-.5,1-.9,1.6-1.3l-10.1-40,20.2,7.1,6.5,36.9c3.2,5.6,1.2,12.7-4.4,15.9-4.7,2.7-10.6,1.7-14.3-2.2h0Z"/>
  <path id="ff35f29e-9865-4218-824f-c5cf71e1b056-5" class="st7" d="M224.1,155.4l4.4-.9,3.7,2.1s10.2,14,10.1,26.7,11.1,135.1,11.1,135.1l-23.2,10.1-17.3-96,11.3-77.2h0Z"/>
</svg>